<svg xmlns="http://www.w3.org/2000/svg" width="1920" height="1080" viewBox="0 0 1920 1080"><style>text{font-family:Arial, sans-serif}</style>
    <rect x="0" y="0" width="1920" height="1080" fill="#f4f7fb"/>
    <rect x="90" y="80" width="1740" height="920" rx="22" fill="#ffffff" stroke="#cbd5e1"/>
    <rect x="90" y="80" width="1740" height="64" rx="22" fill="#0f766e"/>
    <text x="130" y="122" font-family="Arial" font-size="26" font-weight="700" fill="#fff">ГермесГарант</text>
    <rect x="350" y="96" width="170" height="34" rx="8" fill="#ecfeff"/><text x="373" y="119" font-size="17" fill="#155e75">Выбрать Excel</text>
    <rect x="535" y="96" width="140" height="34" rx="8" fill="#e0f2fe"/><text x="565" y="119" font-size="17" fill="#075985">Сохранить</text>
    <rect x="690" y="96" width="190" height="34" rx="8" fill="#e0f2fe"/><text x="719" y="119" font-size="17" fill="#075985">Обновить шаблон</text>
    <rect x="120" y="170" width="1060" height="760" rx="16" fill="#f8fafc" stroke="#dbe3ed"/>
    <rect x="1210" y="170" width="590" height="760" rx="16" fill="#f8fafc" stroke="#dbe3ed"/>
    <text x="150" y="220" font-size="28" font-weight="700" fill="#0f172a">2. Данные сделки</text>
    <text x="1240" y="220" font-size="28" font-weight="700" fill="#0f172a">3. Выбор шаблонов договоров</text>
    <rect x="150" y="250" width="470" height="230" rx="12" fill="#fff" stroke="#dbe3ed"/><text x="175" y="290" font-size="22" fill="#334155">Объект недвижимости</text>
    <rect x="660" y="250" width="470" height="230" rx="12" fill="#fff" stroke="#dbe3ed"/><text x="685" y="290" font-size="22" fill="#334155">Продавец</text>
    <rect x="175" y="315" width="390" height="28" rx="5" fill="#f1f5f9"/><text x="185" y="335" font-size="15" fill="#64748b">Тип объекта: квартира</text><rect x="175" y="357" width="390" height="28" rx="5" fill="#f1f5f9"/><text x="185" y="377" font-size="15" fill="#64748b">Адрес: г. Минск, ул. Примерная</text><rect x="175" y="399" width="390" height="28" rx="5" fill="#f1f5f9"/><text x="185" y="419" font-size="15" fill="#64748b">Цена, BYN: 180000</text><rect x="175" y="441" width="390" height="28" rx="5" fill="#f1f5f9"/><text x="185" y="461" font-size="15" fill="#64748b">Цена прописью: ...</text>
    <rect x="685" y="315" width="390" height="28" rx="5" fill="#f1f5f9"/><text x="695" y="335" font-size="15" fill="#64748b">Фамилия: Иванов</text><rect x="685" y="357" width="390" height="28" rx="5" fill="#f1f5f9"/><text x="695" y="377" font-size="15" fill="#64748b">Имя: Иван</text><rect x="685" y="399" width="390" height="28" rx="5" fill="#f1f5f9"/><text x="695" y="419" font-size="15" fill="#64748b">Паспорт серия: AB</text><rect x="685" y="441" width="390" height="28" rx="5" fill="#f1f5f9"/><text x="695" y="461" font-size="15" fill="#64748b">Телефон: +375...</text>
    <rect x="1240" y="260" width="510" height="36" rx="8" fill="#fff" stroke="#dbe3ed"/><rect x="1255" y="270" width="16" height="16" fill="#fff" stroke="#94a3b8"/><text x="1285" y="284" font-size="16" fill="#334155">Договор оказания риэлтерских услуг (1 собственник)</text><rect x="1240" y="308" width="510" height="36" rx="8" fill="#fff" stroke="#dbe3ed"/><rect x="1255" y="318" width="16" height="16" fill="#fff" stroke="#94a3b8"/><text x="1285" y="332" font-size="16" fill="#334155">Договор на оказание рекламных услуг</text><rect x="1240" y="356" width="510" height="36" rx="8" fill="#fff" stroke="#dbe3ed"/><rect x="1255" y="366" width="16" height="16" fill="#fff" stroke="#94a3b8"/><text x="1285" y="380" font-size="16" fill="#334155">Договор задатка (стандартный)</text><rect x="1240" y="404" width="510" height="36" rx="8" fill="#fff" stroke="#dbe3ed"/><rect x="1255" y="414" width="16" height="16" fill="#fff" stroke="#94a3b8"/><text x="1285" y="428" font-size="16" fill="#334155">Доверенность на представительство (ПНД)</text><rect x="1240" y="452" width="510" height="36" rx="8" fill="#fff" stroke="#dbe3ed"/><rect x="1255" y="462" width="16" height="16" fill="#fff" stroke="#94a3b8"/><text x="1285" y="476" font-size="16" fill="#334155">Согласие на обработку данных</text>
    <rect x="1240" y="620" width="510" height="135" rx="12" fill="#fff" stroke="#dbe3ed"/><text x="1260" y="655" font-size="20" fill="#334155">4. Настройки генерации</text><text x="1260" y="690" font-size="16" fill="#64748b">Папка для сохранения: C:\Документы</text><text x="1260" y="725" font-size="16" fill="#64748b">☑ Открыть файлы после создания</text>
    <rect x="1240" y="785" width="510" height="70" rx="14" fill="#0f766e"/><text x="1368" y="830" font-size="24" fill="#fff">Сформировать документы</text>
    <rect x="90" y="945" width="1740" height="55" rx="0" fill="#e2e8f0"/><text x="130" y="980" font-size="18" fill="#475569">Готов к работе</text><text x="1695" y="980" font-size="18" fill="#475569">Версия 1.0.0</text>
    <rect x="70" y="30" width="1780" height="42" rx="10" fill="#0f766e"/><text x="95" y="59" font-size="22" font-weight="700" fill="#fff">Работа со справочниками</text><text x="95" y="1030" font-size="20" fill="#475569">Справочники агентов, комиссий и плейсхолдеров в конфигурационных файлах.</text></svg>