<svg xmlns="http://www.w3.org/2000/svg" width="1920" height="1080" viewBox="0 0 1920 1080"><style>text{font-family:Arial, sans-serif}</style><rect width="1920" height="1080" fill="#f8fafc"/><text x="90" y="115" font-size="46" font-weight="700" fill="#0f172a">Блок-схема действий пользователя</text><text x="90" y="165" font-size="24" fill="#475569">Последовательность решений и действий пользователя.</text><rect x="60" y="170" width="260" height="120" rx="16" fill="#fff" stroke="#d9e2ec"/><text x="85" y="220" font-size="24" fill="#1f2937">Шаг 1</text><text x="85" y="260" font-size="17" fill="#64748b">Excel</text><rect x="360" y="170" width="260" height="120" rx="16" fill="#fff" stroke="#d9e2ec"/><text x="385" y="220" font-size="24" fill="#1f2937">Шаг 2</text><text x="385" y="260" font-size="17" fill="#64748b">Данные</text><rect x="660" y="170" width="260" height="120" rx="16" fill="#fff" stroke="#d9e2ec"/><text x="685" y="220" font-size="24" fill="#1f2937">Шаг 3</text><text x="685" y="260" font-size="17" fill="#64748b">Шаблоны</text><rect x="960" y="170" width="260" height="120" rx="16" fill="#fff" stroke="#d9e2ec"/><text x="985" y="220" font-size="24" fill="#1f2937">Шаг 4</text><text x="985" y="260" font-size="17" fill="#64748b">DOCX</text><path d="M320 230 H360 M620 230 H660 M920 230 H960" stroke="#0f766e" stroke-width="8" marker-end="url(#a)"/><defs><marker id="a" markerWidth="10" markerHeight="10" refX="8" refY="3" orient="auto"><path d="M0,0 L0,6 L9,3 z" fill="#0f766e"/></marker></defs><rect x="70" y="30" width="1780" height="42" rx="10" fill="#0f766e"/><text x="95" y="59" font-size="22" font-weight="700" fill="#fff">Блок-схема действий пользователя</text><text x="95" y="1030" font-size="20" fill="#475569">Последовательность решений и действий пользователя.</text></svg>